<?xml version="1.0" encoding="UTF-8"?>
<svg xmlns="http://www.w3.org/2000/svg" width="24" height="24" viewBox="0 0 24 24" fill="none" stroke="currentColor" stroke-width="2" stroke-linecap="round" stroke-linejoin="round">
              <path d="M8 14v.5"></path>
              <path d="M16 14v.5"></path>
              <path d="M12 2a8 8 0 0 0-8 8c0 1.9.7 3.6 1.8 5l3.2 4c.6.8 1.7 1 2.5.4.1-.1.2-.1.2-.2l.6-.7c.4-.5.8-1.1 1.1-1.6.3-.5.2-1.1-.2-1.4-.4-.3-1-.2-1.3.2-.2.2-.3.5-.5.7l-1.3-1.5c1.4 1 3.1 1.6 5 1.6 4.4 0 8-3.6 8-8s-3.6-8-8-8Z"></path>
            </svg>